# xmcd CD database file
#
# Track frame offsets:
#	150
#	15428
#	36979
#	52984
#	64210
#	85390
#	105115
#	126550
#	139876
#	170789
#	187739
#	209298
#	228128
#	254629
#
# Disc length: 3573 seconds
#
# Revision: 2
# Processed by: cddbd v1.5.1PL0 Copyright (c) Steve Scherf et al.
# Submitted via: CDex 1.40Release
#
DISCID=c00df30e
DTITLE=Mike Blakely - West of you
DYEAR=1994
DGENRE=Country
TTITLE0=Mike Blakely, Larry Nye, Mike Siler - It's about to get Western
TTITLE1=Mike Blakely, Jerry Harkins, Mike Siler - Riding for love
TTITLE2=Mike Blakely, John Arthur Martinez - Ode to Norma
TTITLE3=Mike Blakely - Guadalupe moon
TTITLE4=Mike Blakely - The whiskey trader's song
TTITLE5=Mike Blakely  - 3/4 moon, 3/4 time
TTITLE6=Mike Blakely - The horses in my string
TTITLE7=Mike Blakely - West of you
TTITLE8=Mike Blakely - The last commanche moon
TTITLE9=Mike Blakely, John Arthur Martinez - Uvalde country
TTITLE10=Mike Blakely - Too long at the dance
TTITLE11=Mike Blakely - Letter to Angelina
TTITLE12=Mike Blakely - The Indian trail
TTITLE13=Mike Blakely - Here's to horses
EXTD=YEAR: 1994 ID3G: 2
EXTT0=
EXTT1=
EXTT2=
EXTT3=
EXTT4=
EXTT5=
EXTT6=
EXTT7=
EXTT8=
EXTT9=
EXTT10=
EXTT11=
EXTT12=
EXTT13=
PLAYORDER=
